<?xml version="1.0" encoding="utf-8"?>
<!-- Generator: Adobe Illustrator 23.0.2, SVG Export Plug-In . SVG Version: 6.00 Build 0)  -->
<svg version="1.1" id="Calque_1" xmlns="http://www.w3.org/2000/svg" xmlns:xlink="http://www.w3.org/1999/xlink" x="0px" y="0px"
	 viewBox="0 0 333.71 218.41" style="enable-background:new 0 0 333.71 218.41;" xml:space="preserve">
<style type="text/css">
	.st0{fill:#3F4143;}
	.st1{fill:#2E366D;}
	.st2{fill:#81202C;}
	.st3{fill:#CA6D2F;}
	.st4{fill:#6C5CA4;}
	.st5{fill:#5FA75C;}
</style>
<g>
	<g>
		<path class="st1" d="M128.56,181.02c2.08-3.68,4.52-8.23,7.32-13.65l7.89-15.15c2.46-4.68,4.5-8.73,6.12-12.15
			c2.6,0.04,4.44,0.06,5.52,0.06c1.9,0,3.76-0.02,5.58-0.06l4.29,12.27l9.32,25.38l1.29,3.3l-4.49-0.06c-1.04,0-2.79,0.02-5.24,0.06
			c-0.48-1.78-1.24-4.18-2.27-7.2c-1.03-3.02-1.91-5.47-2.63-7.35h-15.79c-2.34,4.76-4.62,9.61-6.83,14.55l-4.89-0.06
			C132.83,180.96,131.1,180.98,128.56,181.02z M148.14,160.23h11.5l-4.72-13.89l-2.43,5.05L148.14,160.23z"/>
		<path class="st1" d="M180.19,181.02c0.6-5.96,1.06-12.81,1.36-20.55c0.3-7.74,0.45-14.54,0.45-20.4c2.4,0.04,4.41,0.06,6.03,0.06
			c1.74,0,3.44-0.03,5.11-0.09c1.67-0.06,3.43-0.09,5.29-0.09c2.32,0,4.39,0.13,6.22,0.39c1.83,0.26,3.45,0.86,4.87,1.8
			s2.47,2.08,3.16,3.42c0.69,1.34,1.04,2.9,1.04,4.68c0,1.12-0.13,2.19-0.39,3.19c-0.26,1.01-0.65,1.96-1.16,2.85
			c-0.51,0.89-1.11,1.67-1.81,2.34c-0.7,0.67-1.4,1.2-2.09,1.59c-0.69,0.39-1.48,0.73-2.35,1c-0.88,0.28-2.06,0.62-3.54,1.02
			l2.04,3.96c0.66,1.26,1.91,3.52,3.75,6.78l3.03,5.31c0.16,0.28,0.64,1.19,1.44,2.73c-2.45-0.04-4.06-0.06-4.84-0.06
			c-0.96,0-2.66,0.02-5.08,0.06l-3.32-7.98c-0.58-1.22-1.28-2.66-2.1-4.32l-3.62-7.29c-0.36-0.68-0.86-1.7-1.5-3.06
			c1.34,0.24,2.56,0.36,3.66,0.36c1.72,0,3.29-0.28,4.71-0.84c1.42-0.56,2.51-1.43,3.27-2.59c0.76-1.17,1.14-2.44,1.14-3.82
			c0-0.84-0.17-1.62-0.49-2.34c-0.33-0.72-0.89-1.33-1.67-1.83c-0.78-0.5-1.71-0.82-2.79-0.96c-1.08-0.14-2.16-0.21-3.24-0.21
			c-0.6,0-1.42,0.01-2.46,0.03c-1.04,0.02-2.32,0.03-3.84,0.03l-0.54,12.33l-0.57,22.5l-4.65-0.06
			C183.98,180.96,182.47,180.98,180.19,181.02z"/>
		<path class="st1" d="M219.01,181.02c0.38-3.58,0.67-7.6,0.87-12.06l0.69-14.7c0.24-5.32,0.36-10.05,0.36-14.19
			c2.32,0.04,4.29,0.06,5.91,0.06c1.2,0,2.95-0.02,5.25-0.06c2.26,3.94,5.38,9.08,9.37,15.42c3.98,6.34,7.2,11.59,9.64,15.75
			l1.1-27.84c0.02-0.66,0.03-1.77,0.03-3.33c1.88,0.04,3.3,0.06,4.26,0.06c0.38,0,1.78-0.02,4.21-0.06l-0.75,11.01l-0.93,18.84
			l-0.36,11.1c-2.08-0.04-3.85-0.06-5.31-0.06c-1.16,0-3.04,0.02-5.64,0.06c-1-1.78-1.76-3.1-2.28-3.96
			c-0.82-1.32-2.57-4.04-5.25-8.16c-1.76-2.72-3.96-6.2-6.6-10.44c-1.94-3.12-3.6-5.84-4.98-8.16c-0.16,3.24-0.41,9.25-0.74,18.03
			c-0.14,3.58-0.25,7.81-0.33,12.69c-1.88-0.04-3.24-0.06-4.08-0.06C222.76,180.96,221.29,180.98,219.01,181.02z"/>
		<path class="st1" d="M290.62,139.35c2.98,0,5.84,0.41,8.58,1.23c2.74,0.82,5.17,2.16,7.29,4.01c2.12,1.85,3.72,4.01,4.8,6.47
			s1.62,5.33,1.62,8.61c0,3.08-0.51,6.03-1.53,8.84c-1.02,2.81-2.6,5.23-4.74,7.26c-2.14,2.03-4.75,3.54-7.81,4.52
			c-3.07,0.98-6.3,1.47-9.68,1.47c-3.2,0-6.28-0.45-9.23-1.35c-2.95-0.9-5.49-2.31-7.62-4.23c-2.13-1.92-3.66-4.12-4.57-6.62
			c-0.92-2.49-1.38-5.19-1.38-8.08c0-3.18,0.57-6.22,1.72-9.12c1.15-2.9,2.84-5.3,5.07-7.2c2.23-1.9,4.84-3.34,7.83-4.32
			C283.96,139.84,287.18,139.35,290.62,139.35z M290.14,145.74c-3.02,0-5.65,0.7-7.89,2.09c-2.24,1.39-3.92,3.29-5.05,5.7
			c-1.13,2.41-1.7,5.02-1.7,7.81c0,2.6,0.54,5,1.64,7.19c1.09,2.19,2.76,3.86,5.02,5.01c2.26,1.15,4.7,1.73,7.32,1.73
			c1.98,0,3.87-0.34,5.67-1.02c1.8-0.68,3.35-1.71,4.66-3.1c1.31-1.39,2.29-3.07,2.95-5.03c0.66-1.96,0.99-4,0.99-6.12
			c0-1.98-0.3-3.88-0.88-5.7c-0.59-1.82-1.5-3.38-2.74-4.69c-1.24-1.31-2.74-2.28-4.49-2.91
			C293.89,146.05,292.06,145.74,290.14,145.74z"/>
	</g>
	<g>
		<path class="st4" d="M123.8,57.35c16.76-2.63,68.07-5.88,109.95,42.26c-21.59-35.45-71.09-57.4-114.56-46.26
			C120.72,54.99,122.22,56.32,123.8,57.35z"/>
		<path class="st4" d="M129.27,81.04c32.31,4.47,43.98,20.87,47.01,26.33c-4.6-22.07-45.16-37.33-64.42-25.06
			c3.62,7.99,7.19,15.86,10.67,23.54c0.02-0.06,0.05-0.14,0.09-0.22C118.5,96.4,112.6,78.73,129.27,81.04z"/>
		<path class="st4" d="M132.5,26.79c26.89,0,41.18,12.6,41.18,12.6s23.21,19.96,50.87,18.74c-2.92-0.42-5.88-0.67-8.75-1.29
			c-15.27-3.27-28.36-11.03-40.69-20.19c-11.88-8.82-25.38-12.86-39.9-13.42c-15.19-0.59-27.39,7.53-32.47,20.75
			C105.19,38.14,112.54,26.79,132.5,26.79z"/>
		<path class="st4" d="M126.78,126.7c8.38,7.53,12.37,16.99,13.46,27.89c-0.32-19.87-5.83-29.82-7.97-32.95
			C130.4,123.36,128.62,125,126.78,126.7z"/>
		<path class="st4" d="M122.43,127.78c-14.36,8.1-24.35,19.78-27.41,36.29c-2.9,15.62,1.22,29.49,12.43,41.04
			C81.73,160.65,122.43,127.78,122.43,127.78z"/>
		<g>
			<path class="st4" d="M87.9,37.15c-1.25,8.36-2.8,16.49-9.51,22.76c0.21-0.06,0.41-0.13,0.62-0.19
				c1.76-0.77,6.93-4.56,11.62-23.11c5.76-22.76,31.46-22.32,31.46-22.32c-1.61-0.33-3.21-0.86-4.84-0.94
				C102.85,12.63,90.01,22.97,87.9,37.15z"/>
		</g>
		<path class="st4" d="M92.12,148.96c6.42-11.84,2.95-15.95,0.03-17.38c-3.15,1.78-6.28,3.54-9.35,5.27
			c5.58,3.73,7.15,8.88,3.9,15.54c-1.3,2.67-3.06,5.2-5,7.46c-7.38,8.56-12.42,17.88-10.35,29.74
			C73.22,165.69,82.62,166.47,92.12,148.96z"/>
		<path class="st4" d="M60.89,107.36c-21.48-6.6-11.52-23.3-8.47-27.66c-2.38,0.21-4.75,0.51-6.79,1.47
			c-3.15,1.49-1.92,4.67-1.08,7.63c1.3,4.62,2.24,9.42,2.64,14.2c0.27,3.32-0.63,6.74-0.98,9.85c13.43-4.74,26.03-1.31,38.55,2.99
			c0.31-0.29,0.62-0.57,0.92-0.86C85.7,114.99,85.7,114.99,60.89,107.36z"/>
		<path class="st4" d="M65.66,136.48c14.06-6.68,36.61-9.91,33.75-30.42c1.94,17.98-25.57,22.38-36.74,30.19s-17.01-7.75-17.01-7.75
			c-2.21,10.01,0.41,16.26,10.49,22.27C56.14,150.76,51.6,143.16,65.66,136.48z"/>
	</g>
	<g>
		<path class="st4" d="M169.44,135.53l0.14-1.94l0.14-2.89l0.09-2.84h-0.45l-0.42,0.01l-0.4,0.01l-1.49,0.05
			c0.03-0.64,0.05-1.12,0.06-1.45c1.24,0.01,2.53,0.01,3.88,0.01l2.31-0.01l1.24-0.01c-0.04,0.63-0.06,1.11-0.06,1.45
			c-0.78-0.04-1.52-0.06-2.23-0.06h-0.5l-0.08,1.21l-0.18,4.67l-0.01,0.78c0,0.32-0.01,0.66-0.01,1.01l-0.98-0.01
			C170.38,135.52,170.03,135.53,169.44,135.53z"/>
		<path class="st4" d="M179.16,135.53l0.19-2.54l0.14-2.94l0.08-2.68v-0.9c1.06,0.01,2.17,0.01,3.32,0.01l1.24-0.01l1.86-0.01
			l-0.08,1.43l-0.61-0.03c-0.17-0.01-0.4-0.02-0.7-0.02c-0.3,0-0.6-0.01-0.91-0.01c-0.67,0-1.1,0-1.3,0c-0.19,0-0.49,0.01-0.89,0.02
			l-0.1,2.36c0.59,0.01,1.18,0.02,1.78,0.02c0.41,0,1.11-0.01,2.09-0.04c-0.03,0.4-0.06,0.89-0.09,1.45
			c-1.15-0.01-1.8-0.02-1.97-0.02c-0.51,0-1.14,0.01-1.89,0.04l-0.1,2.48l0.71,0.01c0.21,0,0.68,0,1.42-0.01l1.4-0.03l0.93-0.05
			c-0.04,0.51-0.07,1-0.09,1.45c-1.12-0.01-2.12-0.01-3.02-0.01l-2.12,0.01L179.16,135.53z"/>
		<path class="st4" d="M198.42,133.87c-0.1,0.52-0.18,1.04-0.24,1.58c-0.49,0.09-0.94,0.15-1.35,0.19
			c-0.41,0.04-0.76,0.05-1.05,0.05c-0.64,0-1.26-0.09-1.85-0.28c-0.59-0.19-1.11-0.48-1.58-0.88s-0.81-0.89-1.02-1.46
			c-0.21-0.57-0.32-1.2-0.32-1.87c0-0.74,0.13-1.42,0.38-2.04c0.25-0.62,0.62-1.15,1.09-1.58c0.47-0.43,1.04-0.75,1.68-0.96
			c0.65-0.21,1.32-0.32,2.03-0.32c0.7,0,1.46,0.08,2.28,0.25c0.01,0.39,0.03,0.67,0.04,0.84l0.05,0.71
			c-0.49-0.13-0.89-0.22-1.21-0.27c-0.32-0.05-0.63-0.07-0.92-0.07c-0.46,0-0.9,0.07-1.32,0.22c-0.42,0.14-0.8,0.37-1.12,0.69
			c-0.32,0.32-0.57,0.69-0.75,1.14s-0.26,0.91-0.26,1.39c0,0.58,0.11,1.09,0.32,1.55s0.56,0.83,1.03,1.11
			c0.47,0.28,1.06,0.43,1.76,0.43C196.75,134.27,197.52,134.14,198.42,133.87z"/>
		<path class="st4" d="M203.81,135.53l0.15-2.38c0.08-1.3,0.14-2.51,0.18-3.62c0.03-1.11,0.05-1.89,0.05-2.33l-0.01-0.73
			c0.51,0.01,0.86,0.01,1.07,0.01c0.16,0,0.48,0,0.97-0.01l-0.17,3l-0.02,0.69h4.38l0.08-1.8c0.02-0.62,0.03-1.02,0.03-1.22v-0.67
			l1.08,0.01c0.09,0,0.42,0,0.97-0.01l-0.21,3.62l-0.09,2.68l-0.02,1.57c-0.01,0.65-0.01,1.04-0.01,1.19l-1.01-0.01
			c-0.12,0-0.48,0-1.07,0.01c0.11-1.25,0.18-2.57,0.21-3.95h-4.4l-0.09,2.45l-0.03,1.51l-1.06-0.01
			C204.68,135.52,204.35,135.53,203.81,135.53z"/>
		<path class="st4" d="M218.04,135.53c0.08-0.79,0.14-1.68,0.19-2.67l0.15-3.26c0.05-1.18,0.08-2.23,0.08-3.14
			c0.5,0.01,0.92,0.01,1.27,0.01c0.26,0,0.63,0,1.13-0.01c0.49,0.87,1.16,2.01,2.01,3.41c0.86,1.4,1.55,2.57,2.07,3.49l0.24-6.16
			c0-0.15,0.01-0.39,0.01-0.74c0.4,0.01,0.71,0.01,0.92,0.01c0.08,0,0.38,0,0.9-0.01l-0.16,2.44l-0.2,4.17l-0.08,2.46
			c-0.45-0.01-0.83-0.01-1.14-0.01c-0.25,0-0.65,0-1.21,0.01c-0.22-0.39-0.38-0.69-0.49-0.88c-0.18-0.29-0.55-0.89-1.13-1.81
			c-0.38-0.6-0.85-1.37-1.42-2.31c-0.42-0.69-0.77-1.29-1.07-1.81c-0.03,0.72-0.09,2.05-0.16,3.99c-0.03,0.79-0.05,1.73-0.07,2.81
			c-0.4-0.01-0.7-0.01-0.88-0.01C218.85,135.52,218.53,135.53,218.04,135.53z"/>
		<path class="st4" d="M237.42,126.31c0.64,0,1.25,0.09,1.84,0.27c0.59,0.18,1.11,0.48,1.56,0.89c0.45,0.41,0.8,0.89,1.03,1.43
			c0.23,0.54,0.35,1.18,0.35,1.91c0,0.68-0.11,1.33-0.33,1.96s-0.56,1.16-1.02,1.61c-0.46,0.45-1.02,0.78-1.68,1
			c-0.66,0.22-1.35,0.33-2.08,0.33c-0.69,0-1.35-0.1-1.98-0.3c-0.63-0.2-1.18-0.51-1.64-0.94c-0.46-0.43-0.79-0.91-0.98-1.47
			c-0.2-0.55-0.3-1.15-0.3-1.79c0-0.7,0.12-1.38,0.37-2.02c0.25-0.64,0.61-1.17,1.09-1.59c0.48-0.42,1.04-0.74,1.68-0.96
			C235.99,126.42,236.68,126.31,237.42,126.31z M237.32,127.72c-0.65,0-1.21,0.15-1.69,0.46c-0.48,0.31-0.84,0.73-1.09,1.26
			c-0.24,0.53-0.36,1.11-0.36,1.73c0,0.58,0.12,1.11,0.35,1.59c0.23,0.48,0.59,0.85,1.08,1.11s1.01,0.38,1.57,0.38
			c0.42,0,0.83-0.08,1.22-0.23c0.39-0.15,0.72-0.38,1-0.69c0.28-0.31,0.49-0.68,0.63-1.11c0.14-0.43,0.21-0.89,0.21-1.36
			c0-0.44-0.06-0.86-0.19-1.26c-0.13-0.4-0.32-0.75-0.59-1.04c-0.27-0.29-0.59-0.5-0.96-0.64
			C238.12,127.79,237.73,127.72,237.32,127.72z"/>
		<path class="st4" d="M247.39,135.53c0.13-1.33,0.23-2.82,0.31-4.45c0.08-1.64,0.12-3.17,0.13-4.61c0.44,0.01,0.8,0.01,1.1,0.01
			c0.2,0,0.51,0,0.95-0.01c-0.06,0.8-0.11,1.7-0.16,2.72l-0.13,2.66c-0.04,0.76-0.07,1.52-0.09,2.27l1.11,0.01
			c1.04,0,1.72,0,2.05-0.01c0.33-0.01,0.65-0.02,0.97-0.04c-0.04,0.43-0.07,0.91-0.1,1.44c-1.13-0.01-2.1-0.01-2.9-0.01l-2.03,0.01
			L247.39,135.53z"/>
		<path class="st4" d="M263.52,126.31c0.64,0,1.25,0.09,1.84,0.27c0.59,0.18,1.11,0.48,1.56,0.89c0.45,0.41,0.8,0.89,1.03,1.43
			c0.23,0.54,0.35,1.18,0.35,1.91c0,0.68-0.11,1.33-0.33,1.96c-0.22,0.62-0.56,1.16-1.02,1.61s-1.02,0.78-1.68,1
			c-0.66,0.22-1.35,0.33-2.08,0.33c-0.69,0-1.35-0.1-1.98-0.3c-0.63-0.2-1.18-0.51-1.64-0.94c-0.46-0.43-0.79-0.91-0.98-1.47
			c-0.2-0.55-0.3-1.15-0.3-1.79c0-0.7,0.12-1.38,0.37-2.02c0.25-0.64,0.61-1.17,1.09-1.59c0.48-0.42,1.04-0.74,1.68-0.96
			C262.09,126.42,262.78,126.31,263.52,126.31z M263.42,127.72c-0.65,0-1.21,0.15-1.69,0.46c-0.48,0.31-0.84,0.73-1.09,1.26
			c-0.24,0.53-0.36,1.11-0.36,1.73c0,0.58,0.12,1.11,0.35,1.59c0.23,0.48,0.59,0.85,1.08,1.11c0.49,0.25,1.01,0.38,1.57,0.38
			c0.42,0,0.83-0.08,1.22-0.23s0.72-0.38,1-0.69c0.28-0.31,0.49-0.68,0.63-1.11c0.14-0.43,0.21-0.89,0.21-1.36
			c0-0.44-0.06-0.86-0.19-1.26c-0.13-0.4-0.32-0.75-0.59-1.04c-0.27-0.29-0.59-0.5-0.96-0.64
			C264.23,127.79,263.83,127.72,263.42,127.72z"/>
		<path class="st4" d="M278.61,130.35c0.59,0.01,1.16,0.01,1.7,0.01c0.71,0,1.3,0,1.77-0.01c-0.11,1.48-0.19,3.13-0.24,4.94
			c-0.71,0.15-1.36,0.25-1.93,0.31c-0.58,0.06-1.06,0.09-1.47,0.09c-0.76,0-1.46-0.08-2.1-0.25c-0.65-0.16-1.19-0.43-1.64-0.8
			c-0.45-0.37-0.79-0.85-1.02-1.45c-0.23-0.6-0.35-1.23-0.35-1.9c0-0.57,0.09-1.12,0.26-1.65c0.17-0.53,0.43-1.02,0.77-1.46
			c0.34-0.44,0.75-0.81,1.24-1.11c0.48-0.29,1-0.5,1.54-0.6c0.54-0.11,1.12-0.16,1.72-0.16c0.83,0,1.79,0.12,2.87,0.35
			c0,0.5,0.03,1.03,0.07,1.58c-1.01-0.35-1.93-0.53-2.75-0.53c-0.53,0-1.03,0.08-1.5,0.23c-0.47,0.16-0.88,0.4-1.22,0.72
			c-0.34,0.33-0.6,0.73-0.78,1.21c-0.18,0.48-0.27,0.98-0.27,1.49c0,0.57,0.1,1.08,0.31,1.53c0.2,0.45,0.55,0.8,1.03,1.05
			c0.48,0.25,1.03,0.37,1.65,0.37c0.23,0,0.5-0.02,0.8-0.06c0.31-0.04,0.63-0.11,0.97-0.22l0.11-2.33l-0.51-0.01
			c-0.29,0-0.65,0.01-1.1,0.02C278.59,131.12,278.61,130.67,278.61,130.35z"/>
		<path class="st4" d="M287.61,135.53c0.1-1.52,0.19-3.09,0.25-4.69c0.06-1.6,0.1-2.82,0.1-3.67l-0.01-0.71l1.08,0.01
			c0.06,0,0.39,0,0.99-0.01c-0.18,2.33-0.29,5.35-0.33,9.07l-0.95-0.01C288.57,135.52,288.2,135.53,287.61,135.53z"/>
		<path class="st4" d="M295.48,135.53l0.19-2.54l0.14-2.94l0.08-2.68v-0.9c1.06,0.01,2.17,0.01,3.32,0.01l1.24-0.01l1.86-0.01
			l-0.08,1.43l-0.61-0.03c-0.17-0.01-0.4-0.02-0.7-0.02c-0.3,0-0.6-0.01-0.91-0.01c-0.67,0-1.1,0-1.3,0c-0.19,0-0.49,0.01-0.89,0.02
			l-0.1,2.36c0.59,0.01,1.18,0.02,1.78,0.02c0.41,0,1.11-0.01,2.09-0.04c-0.03,0.4-0.06,0.89-0.09,1.45
			c-1.15-0.01-1.8-0.02-1.97-0.02c-0.51,0-1.14,0.01-1.89,0.04l-0.1,2.48l0.71,0.01c0.21,0,0.68,0,1.42-0.01l1.4-0.03l0.93-0.05
			c-0.04,0.51-0.07,1-0.09,1.45c-1.12-0.01-2.12-0.01-3.02-0.01l-2.12,0.01L295.48,135.53z"/>
		<path class="st4" d="M307.32,135.34c-0.03-0.67-0.08-1.22-0.14-1.65c0.84,0.39,1.61,0.59,2.29,0.59c0.27,0,0.53-0.04,0.77-0.13
			c0.24-0.09,0.41-0.21,0.53-0.36c0.11-0.16,0.17-0.33,0.17-0.53c0-0.15-0.03-0.29-0.08-0.41c-0.08-0.16-0.22-0.33-0.41-0.51
			c-0.25-0.24-0.68-0.64-1.31-1.2c-0.3-0.27-0.51-0.46-0.62-0.58c-0.26-0.25-0.45-0.48-0.59-0.68c-0.14-0.2-0.24-0.4-0.3-0.6
			c-0.06-0.2-0.09-0.41-0.09-0.64c0-0.42,0.11-0.81,0.34-1.17c0.23-0.36,0.56-0.65,1.01-0.86c0.45-0.21,1.01-0.31,1.7-0.31
			c0.61,0,1.3,0.08,2.07,0.23c0.02,0.46,0.06,0.99,0.13,1.58c-0.67-0.27-1.29-0.4-1.85-0.4c-0.42,0-0.76,0.1-1.03,0.3
			c-0.27,0.2-0.4,0.43-0.4,0.69c0,0.07,0.01,0.15,0.03,0.22c0.02,0.08,0.05,0.15,0.08,0.23c0.04,0.07,0.1,0.17,0.2,0.29
			c0.1,0.12,0.23,0.26,0.42,0.41c0.18,0.16,0.34,0.28,0.47,0.38l0.79,0.74c0.2,0.17,0.38,0.34,0.54,0.5
			c0.16,0.16,0.29,0.32,0.41,0.47c0.11,0.15,0.2,0.29,0.27,0.43c0.06,0.14,0.11,0.28,0.14,0.42c0.03,0.14,0.05,0.3,0.05,0.46
			c0,0.37-0.08,0.72-0.25,1.05c-0.17,0.33-0.41,0.6-0.72,0.81c-0.31,0.21-0.66,0.36-1.03,0.44c-0.37,0.08-0.77,0.12-1.18,0.12
			c-0.28,0-0.59-0.02-0.96-0.07S307.92,135.48,307.32,135.34z"/>
	</g>
</g>
</svg>
