<?xml version="1.0" encoding="utf-8"?>
<!-- Generator: Adobe Illustrator 23.0.2, SVG Export Plug-In . SVG Version: 6.00 Build 0)  -->
<svg version="1.1" id="Calque_1" xmlns="http://www.w3.org/2000/svg" xmlns:xlink="http://www.w3.org/1999/xlink" x="0px" y="0px"
	 viewBox="0 0 333.71 218.41" style="enable-background:new 0 0 333.71 218.41;" xml:space="preserve">
<style type="text/css">
	.st0{fill:#3F4143;}
	.st1{fill:#2E366D;}
	.st2{fill:#81202C;}
	.st3{fill:#CA6D2F;}
	.st4{fill:#6C5CA4;}
	.st5{fill:#5FA75C;}
</style>
<g>
	<g>
		<path class="st0" d="M174.74,115.05c1.3,0.02,2.54,0.03,3.73,0.03c1.55,0,2.85-0.01,3.89-0.03c-0.25,3.16-0.42,6.66-0.53,10.51
			c-1.56,0.31-2.98,0.53-4.24,0.66c-1.26,0.13-2.34,0.19-3.22,0.19c-1.66,0-3.2-0.17-4.61-0.52c-1.42-0.35-2.62-0.91-3.59-1.69
			c-0.98-0.78-1.73-1.81-2.24-3.09c-0.51-1.28-0.77-2.63-0.77-4.05c0-1.22,0.19-2.39,0.57-3.52c0.38-1.13,0.95-2.17,1.7-3.11
			c0.75-0.94,1.65-1.73,2.71-2.35c1.06-0.63,2.19-1.05,3.38-1.29c1.19-0.23,2.45-0.35,3.78-0.35c1.83,0,3.93,0.25,6.3,0.73
			c0.01,1.07,0.06,2.19,0.16,3.36c-2.22-0.74-4.23-1.12-6.03-1.12c-1.16,0-2.25,0.16-3.28,0.49c-1.03,0.33-1.92,0.84-2.67,1.53
			c-0.75,0.69-1.32,1.55-1.71,2.57c-0.39,1.02-0.59,2.08-0.59,3.17c0,1.22,0.22,2.3,0.67,3.26c0.45,0.96,1.2,1.7,2.25,2.22
			c1.05,0.53,2.26,0.79,3.63,0.79c0.5,0,1.09-0.04,1.77-0.13c0.68-0.09,1.38-0.24,2.12-0.46l0.23-4.96l-1.12-0.01
			c-0.63,0-1.43,0.01-2.41,0.04C174.7,116.69,174.74,115.72,174.74,115.05z"/>
		<path class="st0" d="M185.65,126.08c0.28-2.81,0.5-6.03,0.64-9.68c0.14-3.65,0.21-6.85,0.21-9.61c1.13,0.02,2.08,0.03,2.84,0.03
			c0.82,0,1.62-0.01,2.41-0.04c0.79-0.03,1.62-0.04,2.49-0.04c1.09,0,2.07,0.06,2.93,0.18c0.86,0.12,1.63,0.41,2.3,0.85
			s1.17,0.98,1.49,1.61c0.33,0.63,0.49,1.37,0.49,2.2c0,0.53-0.06,1.03-0.18,1.5c-0.12,0.48-0.3,0.92-0.54,1.34s-0.52,0.79-0.86,1.1
			c-0.33,0.32-0.66,0.56-0.98,0.75c-0.33,0.18-0.7,0.34-1.11,0.47c-0.41,0.13-0.97,0.29-1.67,0.48l0.96,1.86
			c0.31,0.59,0.9,1.66,1.77,3.19l1.43,2.5c0.08,0.13,0.3,0.56,0.68,1.29c-1.15-0.02-1.91-0.03-2.28-0.03
			c-0.45,0-1.25,0.01-2.39,0.03l-1.57-3.76c-0.27-0.57-0.6-1.25-0.99-2.03l-1.71-3.43c-0.17-0.32-0.41-0.8-0.71-1.44
			c0.63,0.11,1.21,0.17,1.73,0.17c0.81,0,1.55-0.13,2.22-0.39c0.67-0.26,1.18-0.67,1.54-1.22c0.36-0.55,0.54-1.15,0.54-1.8
			c0-0.39-0.08-0.76-0.23-1.1c-0.16-0.34-0.42-0.63-0.78-0.86c-0.37-0.24-0.81-0.39-1.31-0.45c-0.51-0.07-1.02-0.1-1.53-0.1
			c-0.28,0-0.67,0.01-1.16,0.01c-0.49,0.01-1.09,0.01-1.81,0.01l-0.25,5.81l-0.27,10.6l-2.19-0.03
			C187.44,126.05,186.73,126.06,185.65,126.08z"/>
		<path class="st0" d="M214.9,106.45c1.4,0,2.75,0.19,4.04,0.58c1.29,0.39,2.43,1.01,3.43,1.89c1,0.87,1.75,1.89,2.26,3.05
			c0.51,1.16,0.76,2.51,0.76,4.06c0,1.45-0.24,2.84-0.72,4.16c-0.48,1.32-1.23,2.46-2.23,3.42c-1.01,0.96-2.24,1.67-3.68,2.13
			c-1.45,0.46-2.96,0.69-4.56,0.69c-1.51,0-2.96-0.21-4.35-0.64c-1.39-0.42-2.59-1.09-3.59-1.99s-1.72-1.94-2.16-3.12
			c-0.43-1.17-0.65-2.44-0.65-3.81c0-1.5,0.27-2.93,0.81-4.3c0.54-1.37,1.34-2.5,2.39-3.39c1.05-0.9,2.28-1.57,3.69-2.04
			C211.77,106.68,213.28,106.45,214.9,106.45z M214.68,109.46c-1.42,0-2.66,0.33-3.72,0.98c-1.06,0.65-1.85,1.55-2.38,2.69
			c-0.53,1.14-0.8,2.36-0.8,3.68c0,1.23,0.26,2.35,0.77,3.38s1.3,1.82,2.37,2.36c1.06,0.54,2.21,0.81,3.45,0.81
			c0.93,0,1.82-0.16,2.67-0.48c0.85-0.32,1.58-0.81,2.2-1.46c0.62-0.65,1.08-1.44,1.39-2.37c0.31-0.92,0.47-1.88,0.47-2.88
			c0-0.93-0.14-1.83-0.42-2.69c-0.28-0.86-0.71-1.59-1.29-2.21c-0.58-0.62-1.29-1.07-2.11-1.37
			C216.44,109.61,215.58,109.46,214.68,109.46z"/>
		<path class="st0" d="M228.87,106.79c1.09,0.02,1.83,0.03,2.22,0.03c0.48,0,1.19-0.01,2.14-0.03l-0.67,11.4
			c-0.01,0.13-0.01,0.27-0.01,0.42c0,1.27,0.18,2.23,0.55,2.87c0.36,0.64,0.9,1.11,1.6,1.4c0.7,0.29,1.5,0.44,2.41,0.44
			c0.57,0,1.12-0.07,1.64-0.2c0.42-0.11,0.81-0.27,1.16-0.47c0.28-0.17,0.53-0.37,0.75-0.59c0.25-0.27,0.47-0.59,0.64-0.95
			c0.18-0.35,0.31-0.74,0.4-1.19c0.12-0.67,0.24-1.83,0.34-3.49l0.3-4.92c0.07-1.43,0.12-3.01,0.16-4.73
			c1.06,0.02,1.85,0.03,2.37,0.03l2.06-0.03l-0.44,6.81l-0.28,5.41c-0.08,1.26-0.22,2.2-0.4,2.83c-0.15,0.52-0.36,1-0.64,1.44
			c-0.26,0.39-0.58,0.75-0.95,1.06c-0.47,0.41-1.02,0.75-1.65,1.05c-0.71,0.33-1.46,0.57-2.25,0.72c-1.09,0.21-2.22,0.31-3.38,0.31
			c-1.19,0-2.3-0.11-3.33-0.33c-0.89-0.19-1.7-0.48-2.44-0.88c-0.74-0.4-1.33-0.84-1.76-1.33c-0.35-0.4-0.63-0.89-0.83-1.48
			c-0.24-0.66-0.35-1.39-0.35-2.2c0-0.28,0.01-0.65,0.03-1.09c0.02-0.45,0.05-1.02,0.1-1.73l0.13-1.99c0.05-0.62,0.1-1.53,0.16-2.74
			l0.14-3.07C228.81,108.73,228.84,107.81,228.87,106.79z"/>
		<path class="st0" d="M249.85,126.08l0.25-3.35l0.35-7.42l0.17-5.38c0.01-0.49,0.01-0.98,0.01-1.48c0-0.37,0-0.92-0.01-1.65
			c1.21,0.02,2.19,0.03,2.94,0.03c0.6,0,1.44-0.01,2.51-0.04s1.93-0.04,2.56-0.04c1.3,0,2.26,0.09,2.87,0.28
			c0.65,0.21,1.22,0.53,1.71,0.97s0.86,0.97,1.12,1.6c0.28,0.7,0.42,1.45,0.42,2.25c0,1.22-0.3,2.32-0.91,3.31
			c-0.61,0.99-1.45,1.74-2.52,2.23c-1.07,0.49-2.27,0.73-3.57,0.73c-0.64,0-1.32-0.07-2.05-0.2c-0.21-0.98-0.44-1.9-0.71-2.75
			c0.58,0.12,1.16,0.18,1.73,0.18c0.78,0,1.46-0.12,2.03-0.35c0.57-0.24,1.03-0.62,1.37-1.15c0.34-0.53,0.51-1.13,0.51-1.8
			c0-0.39-0.07-0.76-0.21-1.09c-0.14-0.33-0.35-0.59-0.61-0.79c-0.27-0.2-0.56-0.33-0.89-0.4c-0.32-0.07-0.79-0.11-1.39-0.11
			c-0.53,0-1.06,0.01-1.59,0.03c-0.54,0.02-1.01,0.03-1.42,0.03c-0.11,1.85-0.2,3.61-0.25,5.3l-0.17,5.4
			c-0.06,1.91-0.08,3.32-0.08,4.21c0,0.34,0,0.83,0.01,1.47l-2.05-0.03C251.7,126.05,251,126.06,249.85,126.08z"/>
		<path class="st0" d="M266.85,126.08l0.41-5.41l0.3-6.26l0.18-5.69v-1.92c2.33,0.02,4.75,0.03,7.28,0.03l2.71-0.01l4.08-0.01
			l-0.17,3.05l-1.34-0.07c-0.37-0.02-0.88-0.03-1.53-0.04c-0.65-0.01-1.31-0.01-1.99-0.01c-1.47,0-2.42,0-2.85,0.01
			c-0.43,0.01-1.08,0.02-1.94,0.05l-0.23,5.02c1.29,0.03,2.59,0.04,3.9,0.04c0.91,0,2.43-0.03,4.58-0.08
			c-0.08,0.86-0.14,1.88-0.2,3.08c-2.51-0.03-3.96-0.04-4.32-0.04c-1.11,0-2.5,0.03-4.15,0.08l-0.23,5.29l1.55,0.01
			c0.45,0,1.49-0.01,3.11-0.03l3.07-0.06l2.05-0.1c-0.09,1.09-0.16,2.12-0.2,3.09c-2.45-0.02-4.66-0.03-6.63-0.03l-4.65,0.01
			L266.85,126.08z"/>
	</g>
	<g>
		<path class="st1" d="M129.91,167.61c1.77-3.12,3.84-6.99,6.22-11.59l6.7-12.86c2.09-3.97,3.82-7.41,5.2-10.31
			c2.21,0.03,3.77,0.05,4.69,0.05c1.61,0,3.19-0.02,4.74-0.05l3.64,10.42l7.92,21.55l1.09,2.8l-3.82-0.05
			c-0.88,0-2.36,0.02-4.45,0.05c-0.41-1.51-1.05-3.55-1.93-6.11c-0.88-2.56-1.62-4.64-2.23-6.24h-13.4
			c-1.98,4.04-3.92,8.16-5.8,12.35l-4.15-0.05C133.54,167.56,132.07,167.58,129.91,167.61z M146.54,149.96h9.76l-4.01-11.79
			l-2.06,4.29L146.54,149.96z"/>
		<path class="st1" d="M173.74,167.61c0.51-5.06,0.9-10.87,1.15-17.45c0.26-6.57,0.38-12.34,0.38-17.32
			c2.04,0.03,3.74,0.05,5.12,0.05c1.48,0,2.92-0.03,4.34-0.08c1.42-0.05,2.91-0.08,4.49-0.08c1.97,0,3.73,0.11,5.28,0.33
			c1.55,0.22,2.93,0.73,4.14,1.53c1.2,0.8,2.1,1.77,2.69,2.9c0.59,1.14,0.88,2.46,0.88,3.97c0,0.95-0.11,1.86-0.33,2.71
			c-0.22,0.86-0.55,1.66-0.98,2.42c-0.43,0.76-0.95,1.42-1.54,1.99c-0.59,0.57-1.18,1.02-1.77,1.35c-0.59,0.33-1.25,0.62-2,0.85
			c-0.75,0.24-1.75,0.53-3.01,0.87l1.73,3.36c0.56,1.07,1.62,2.99,3.18,5.75l2.57,4.51c0.14,0.24,0.54,1.01,1.22,2.32
			c-2.08-0.03-3.45-0.05-4.11-0.05c-0.82,0-2.26,0.02-4.32,0.05l-2.82-6.77c-0.49-1.04-1.09-2.26-1.78-3.67l-3.08-6.19
			c-0.3-0.58-0.73-1.44-1.27-2.6c1.14,0.2,2.17,0.31,3.11,0.31c1.46,0,2.79-0.24,4-0.71c1.21-0.47,2.13-1.21,2.78-2.2
			c0.65-0.99,0.97-2.08,0.97-3.25c0-0.71-0.14-1.38-0.42-1.99c-0.28-0.61-0.75-1.13-1.41-1.55c-0.66-0.42-1.45-0.7-2.37-0.82
			c-0.92-0.12-1.83-0.18-2.75-0.18c-0.51,0-1.21,0.01-2.09,0.03c-0.88,0.02-1.97,0.02-3.26,0.02l-0.45,10.47l-0.48,19.1l-3.95-0.05
			C176.96,167.56,175.68,167.58,173.74,167.61z"/>
		<path class="st1" d="M206.7,167.61c0.32-3.04,0.57-6.45,0.73-10.24l0.58-12.48c0.2-4.52,0.3-8.53,0.3-12.05
			c1.97,0.03,3.64,0.05,5.01,0.05c1.02,0,2.5-0.02,4.45-0.05c1.92,3.34,4.57,7.71,7.95,13.09c3.38,5.38,6.11,9.84,8.18,13.37
			l0.93-23.63c0.02-0.56,0.03-1.5,0.03-2.83c1.6,0.03,2.8,0.05,3.62,0.05c0.32,0,1.51-0.02,3.57-0.05l-0.63,9.35l-0.79,15.99
			l-0.3,9.42c-1.77-0.03-3.27-0.05-4.51-0.05c-0.99,0-2.58,0.02-4.79,0.05c-0.85-1.51-1.49-2.63-1.94-3.36
			c-0.7-1.12-2.18-3.43-4.46-6.93c-1.49-2.31-3.36-5.26-5.6-8.86c-1.65-2.65-3.06-4.96-4.23-6.93c-0.14,2.75-0.35,7.85-0.63,15.31
			c-0.12,3.04-0.21,6.63-0.28,10.77c-1.6-0.03-2.75-0.05-3.47-0.05C209.88,167.56,208.63,167.58,206.7,167.61z"/>
		<path class="st1" d="M267.49,132.24c2.53,0,4.96,0.35,7.28,1.04c2.33,0.7,4.39,1.83,6.19,3.4c1.8,1.57,3.16,3.4,4.07,5.49
			s1.38,4.52,1.38,7.31c0,2.62-0.43,5.12-1.3,7.5c-0.87,2.39-2.21,4.44-4.02,6.16c-1.82,1.72-4.03,3-6.63,3.83
			c-2.61,0.83-5.34,1.25-8.21,1.25c-2.72,0-5.33-0.38-7.83-1.15s-4.66-1.96-6.47-3.59c-1.81-1.63-3.1-3.5-3.88-5.62
			c-0.78-2.11-1.17-4.4-1.17-6.86c0-2.7,0.49-5.28,1.46-7.74c0.98-2.46,2.41-4.5,4.3-6.11c1.89-1.61,4.11-2.84,6.65-3.67
			C261.84,132.66,264.57,132.24,267.49,132.24z M267.08,137.66c-2.56,0-4.8,0.59-6.7,1.77c-1.9,1.18-3.33,2.79-4.29,4.84
			c-0.96,2.05-1.44,4.26-1.44,6.63c0,2.21,0.46,4.24,1.39,6.1c0.93,1.86,2.35,3.28,4.27,4.25c1.92,0.98,3.99,1.46,6.21,1.46
			c1.68,0,3.29-0.29,4.81-0.87c1.53-0.58,2.85-1.46,3.96-2.63c1.11-1.18,1.95-2.6,2.51-4.27c0.56-1.66,0.84-3.39,0.84-5.2
			c0-1.68-0.25-3.29-0.75-4.84c-0.5-1.54-1.28-2.87-2.33-3.99c-1.05-1.11-2.32-1.94-3.81-2.47
			C270.27,137.93,268.71,137.66,267.08,137.66z"/>
	</g>
	<g>
		<path class="st1" d="M123.55,58.65c14.54-2.28,59.06-5.1,95.41,36.67c-18.74-30.76-61.69-49.81-99.41-40.14
			C120.88,56.6,122.18,57.76,123.55,58.65z"/>
		<path class="st1" d="M128.3,79.21c28.04,3.87,38.16,18.11,40.8,22.85c-3.99-19.15-39.19-32.39-55.9-21.75
			c3.14,6.93,6.24,13.76,9.26,20.43c0.02-0.05,0.04-0.12,0.08-0.19C118.96,92.54,113.83,77.21,128.3,79.21z"/>
		<path class="st1" d="M131.1,32.14c23.33,0,35.73,10.93,35.73,10.93s20.14,17.32,44.14,16.26c-2.53-0.36-5.1-0.58-7.6-1.12
			c-13.25-2.84-24.61-9.57-35.31-17.52c-10.31-7.65-22.02-11.16-34.62-11.64c-13.18-0.51-23.77,6.53-28.17,18
			C107.41,41.98,113.78,32.14,131.1,32.14z"/>
		<path class="st1" d="M126.14,118.83c7.27,6.53,10.74,14.75,11.68,24.2c-0.28-17.24-5.06-25.88-6.92-28.6
			C129.28,115.93,127.74,117.36,126.14,118.83z"/>
		<path class="st1" d="M122.36,119.76c-12.46,7.03-21.13,17.16-23.79,31.49c-2.52,13.55,1.06,25.59,10.79,35.61
			C87.05,148.29,122.36,119.76,122.36,119.76z"/>
		<g>
			<path class="st1" d="M92.4,41.12c-1.08,7.25-2.43,14.31-8.26,19.75c0.19-0.05,0.36-0.11,0.54-0.17
				c1.52-0.67,6.01-3.96,10.08-20.05c5-19.75,27.3-19.37,27.3-19.37c-1.4-0.28-2.79-0.75-4.2-0.82
				C105.37,19.84,94.24,28.82,92.4,41.12z"/>
		</g>
		<path class="st1" d="M96.07,138.14c5.57-10.27,2.56-13.84,0.03-15.08c-2.73,1.54-5.45,3.07-8.11,4.57
			c4.84,3.24,6.2,7.71,3.39,13.49c-1.13,2.32-2.65,4.51-4.34,6.47c-6.4,7.42-10.78,15.51-8.98,25.81
			C79.66,152.66,87.82,153.34,96.07,138.14z"/>
		<path class="st1" d="M68.97,102.05c-18.64-5.73-10-20.22-7.35-24c-2.07,0.18-4.12,0.44-5.89,1.28c-2.73,1.29-1.66,4.06-0.94,6.62
			c1.13,4.01,1.95,8.17,2.29,12.32c0.24,2.88-0.55,5.84-0.85,8.55c11.66-4.11,22.58-1.14,33.46,2.6c0.27-0.25,0.54-0.5,0.8-0.75
			C90.49,108.67,90.49,108.67,68.97,102.05z"/>
		<path class="st1" d="M73.1,127.31c12.2-5.8,31.76-8.6,29.28-26.4c1.68,15.6-22.19,19.42-31.88,26.2
			c-9.69,6.78-14.76-6.73-14.76-6.73c-1.92,8.68,0.36,14.11,9.1,19.33C64.84,139.71,60.9,133.11,73.1,127.31z"/>
	</g>
</g>
</svg>
